# xmcd
#
# Track frame offsets:
#	150
#	17613
#	29892
#	41465
#	50637
#	61377
#	72051
#	86765
#	95839
#	107596
#
# Disc length: 1588 seconds
#
# Revision: 0
# Processed by: cddbd v1.5.1PL0 Copyright (c) Steve Scherf et al.
# Submitted via: dBpowerAMP V4.0
#
DISCID=8706320a
DTITLE=Bella Bellow - Bella Bellow
DYEAR=1900
DGENRE=General Unclassifi
TTITLE0=Rockia
TTITLE1=Zeli
TTITLE2=Bouy L
TTITLE3=Blewu
TTITLE4=Bem Bem
TTITLE5=Lafoulou
TTITLE6=Nye Dzi
TTITLE7=Awula
TTITLE8=O Senye
TTITLE9=Denyegban
EXTD=
EXTT0=
EXTT1=
EXTT2=
EXTT3=
EXTT4=
EXTT5=
EXTT6=
EXTT7=
EXTT8=
EXTT9=
PLAYORDER=
